<?xml version="1.0" standalone="no"?>
<!DOCTYPE svg PUBLIC "-//W3C//DTD SVG 20010904//EN"
 "http://www.w3.org/TR/2001/REC-SVG-20010904/DTD/svg10.dtd">
<svg version="1.0" xmlns="http://www.w3.org/2000/svg"
 width="101.000000pt" height="99.000000pt" viewBox="0 0 101.000000 99.000000"
 preserveAspectRatio="xMidYMid meet">
<metadata>
Created by potrace 1.15, written by Peter Selinger 2001-2017
</metadata>
<g transform="translate(0.000000,99.000000) scale(0.100000,-0.100000)"
fill="#000000" stroke="none">
<path d="M260 974 c0 -9 -9 -18 -20 -21 -11 -3 -20 -12 -20 -19 0 -8 -8 -14
-19 -14 -10 0 -21 -9 -24 -20 -3 -11 -12 -20 -21 -20 -9 0 -16 -7 -16 -15 0
-8 -4 -15 -9 -15 -20 0 -71 -56 -71 -78 0 -15 -7 -26 -20 -29 -16 -4 -20 -14
-20 -47 l1 -41 32 64 c40 81 166 213 194 204 5 -2 -21 -35 -58 -72 -74 -74
-126 -166 -135 -237 -4 -32 -2 -29 11 15 23 79 63 147 125 210 104 105 238
152 374 131 165 -25 290 -127 362 -297 14 -32 22 -45 19 -28 -22 100 -124 231
-223 283 -68 36 -158 62 -217 62 -51 0 -148 -25 -198 -50 -43 -23 -47 -24 -47
-11 0 5 28 20 63 34 l62 26 -62 1 c-51 0 -63 -3 -63 -16z"/>
<path d="M482 701 c-13 -22 -31 -43 -42 -46 -16 -5 -20 -15 -20 -51 0 -51 11
-55 45 -18 l25 27 0 -132 0 -131 35 0 35 0 0 195 0 195 -28 0 c-23 0 -33 -8
-50 -39z"/>
<path d="M219 620 c-9 -5 -22 -24 -29 -41 -11 -26 -11 -32 1 -40 22 -14 56
-11 63 6 8 23 46 19 46 -4 0 -13 -9 -21 -28 -26 -15 -3 -42 -14 -60 -25 -28
-17 -32 -25 -32 -63 0 -30 6 -50 20 -65 26 -28 50 -28 84 -1 21 17 26 18 26 5
0 -11 10 -16 34 -16 l33 0 -3 48 c-2 26 -5 80 -7 120 -5 92 -21 112 -86 112
-25 0 -53 -5 -62 -10z"/>
<path d="M646 573 c14 -32 28 -63 30 -69 3 -6 -9 -41 -26 -78 -16 -37 -30 -70
-30 -72 0 -2 16 -4 35 -4 33 0 38 4 54 43 l19 42 17 -42 c16 -40 20 -43 57
-43 22 0 38 3 36 8 -2 4 -12 25 -21 47 -9 22 -23 51 -30 65 -8 15 -10 32 -6
40 5 8 19 39 33 68 l24 52 -38 0 c-32 0 -39 -4 -50 -30 -7 -16 -17 -30 -22
-30 -5 0 -14 14 -19 30 -10 26 -16 30 -50 30 l-39 0 26 -57z"/>
<path d="M958 538 c14 -212 -94 -406 -275 -491 -64 -30 -75 -32 -178 -32 -106
0 -112 1 -185 37 -121 59 -199 149 -248 288 -18 51 -22 57 -17 25 19 -118 135
-265 256 -323 35 -17 58 -31 51 -31 -7 -1 -43 14 -80 32 -123 59 -230 189
-267 324 l-13 48 -1 -67 c-1 -50 3 -68 12 -68 7 0 22 -19 32 -42 16 -38 138
-168 157 -168 4 0 18 -11 32 -25 14 -14 34 -25 45 -25 11 0 22 -4 25 -9 3 -5
96 -9 206 -9 l201 0 51 34 c27 19 54 34 59 34 4 0 13 9 19 19 5 11 19 23 30
26 11 3 20 12 20 18 1 7 23 30 50 51 35 27 50 47 50 63 0 12 5 23 10 23 6 0
10 25 9 58 l0 57 -23 -63 c-28 -74 -63 -128 -126 -189 -52 -52 -152 -110 -201
-118 l-34 -6 40 17 c148 63 253 188 290 345 15 67 18 163 5 214 -4 17 -5 -3
-2 -47z"/>
</g>
</svg>
